<svg width="102" height="48" viewBox="0 0 102 48" fill="none" xmlns="http://www.w3.org/2000/svg">
<g id="logo">
<path id="Vector" d="M22.0658 0L15.2261 47.5823H6.89928L0 0H5.94283L11.0572 41.516L16.1119 0H22.0658Z" fill="black"/>
<path id="Vector_2" d="M31.464 0V47.5823H25.5156V0H31.464Z" fill="black"/>
<path id="Vector_3" d="M57.2767 0L50.4359 47.5823H42.1102L35.2109 0H41.1582L46.2747 41.516L51.3251 0H57.2767Z" fill="black"/>
<path id="Vector_4" d="M75.8903 41.634V47.5823H60.7227V0H66.671V41.634H75.8903Z" fill="black"/>
<path id="Vector_5" d="M94.8618 38.0068H87.0712L85.8819 47.5823H79.9336L86.8329 0H95.1597L101.999 47.5823H96.0533L94.8618 38.0068ZM94.1492 32.0584L90.9974 6.06528L87.7882 32.0584H94.1492Z" fill="black"/>
</g>
</svg>
